<svg xmlns="http://www.w3.org/2000/svg" version="1.1" xmlns:xlink="http://www.w3.org/1999/xlink" xmlns:svgjs="http://svgjs.dev/svgjs" width="100%" height="100%" viewBox="0 0 1000 600"><rect width="1000" height="600" x="0" y="0" fill="#552233"/><g><circle r="166.66666666666666" cx="360.3837229410807" cy="382.6058940584144" fill="#fbf8be" transform="matrix(0.6452712896478506,0,0,0.6452712896478506,0,53.11541701957141)"/><path d="M236.9112582309393 457.605912210451L236.9112582309393 457.605912210451Q233.43877251270962 457.605912210451 233.43877251270962 453.5072405430323L233.43877251270962 453.5072405430323Q233.43877251270962 446.96075107423866 240.61144793069224 430.45221241380256Q247.78412334867483 413.94367375336645 262.12947418464 387.92849386433426L262.12947418464 387.92849386433426L301.066855025117 317.85259355055194L297.1674243415313 317.85259355055194Q249.40651421702805 317.85259355055194 234.86192239723 329.52242260361885L234.86192239723 329.52242260361885Q228.9131558799349 334.2472802202264 226.66457906239273 343.0423465065623L226.66457906239273 343.0423465065623Q226.46533807855988 346.11635025712627 223.98905727949446 346.11635025712627L223.98905727949446 346.11635025712627Q219.89038561207585 346.11635025712627 219.89038561207585 342.44462355506374L219.89038561207585 342.44462355506374Q219.89038561207585 332.1979443865171 231.16173269747705 324.0006010516799L231.16173269747705 324.0006010516799Q248.18260531634053 311.27764108406785 294.91884752398903 311.27764108406785L294.91884752398903 311.27764108406785Q308.4387714269325 311.27764108406785 322.15793631370866 311.90382703325685L322.15793631370866 311.90382703325685L343.47672158382363 313.32697691777724Q350.0232110526173 313.7539218831333 355.37425461841383 314.03855186003733Q360.69683518651993 314.3516448346318 364.7955068539386 314.3516448346318L364.7955068539386 314.3516448346318Q368.06875158833543 314.3516448346318 368.06875158833543 317.62488956902865L368.06875158833543 317.62488956902865Q368.06875158833543 320.9265973011159 364.7955068539386 320.9265973011159L364.7955068539386 320.9265973011159Q357.62283143595596 320.9265973011159 343.47672158382363 319.67422540273793L343.47672158382363 319.67422540273793Q333.230042415277 318.64955748588335 327.48051688181476 318.4503165020505Q321.75945434604296 318.25107551821765 317.0345967294354 318.25107551821765L317.0345967294354 318.25107551821765Q312.7366840781839 318.25107551821765 310.6873482444746 318.137223527456Q308.6380124107653 318.0518345343848 307.8125854777435 318.0518345343848L307.8125854777435 318.0518345343848Q305.3647676763685 324.3990830193456 295.31732949165473 342.44462355506374L295.31732949165473 342.44462355506374L274.62473017072875 379.3326685618313Q257.2053755841996 410.4711880351368 248.69493927476785 428.9152105385206Q240.18450296533612 447.35923304190436 240.18450296533612 452.6818136100106L240.18450296533612 452.6818136100106L240.18450296533612 453.70648152686516Q240.18450296533612 457.605912210451 236.9112582309393 457.605912210451ZM381.19019352361306 454.1334264922213L381.19019352361306 454.1334264922213Q364.36856188858246 454.1334264922213 351.474823934828 447.35923304190436Q338.55262298338323 440.58503959158753 331.18070658156773 428.2036355962604Q323.80879017975224 415.7937686032429 323.80879017975224 399.3990819335684L323.80879017975224 399.3990819335684Q323.80879017975224 381.97972734703916 330.78222461390203 367.634376511074Q337.7271960503614 353.2890256751088 350.848637985639 341.41995563820905L350.848637985639 341.41995563820905Q388.16362795776286 307.6059143820053 439.59626478432847 307.6059143820053L439.59626478432847 307.6059143820053Q450.44066690437364 307.6059143820053 460.4027160960161 311.3914930748295Q470.3363022899682 315.1770717676537 476.683550774929 322.46359917639785Q483.0307992598898 329.7216635874517 483.0307992598898 339.9683427559983L483.0307992598898 339.9683427559983Q483.0307992598898 348.3649270746684 477.90745967561656 354.3136935919635L477.90745967561656 354.3136935919635Q476.683550774929 355.9645474580071 473.92263999895954 358.5262172501437Q471.16172922299006 361.08788704228033 469.1123933892808 361.08788704228033L469.1123933892808 361.08788704228033Q467.4615395232371 361.08788704228033 465.8106856571935 359.75012615083125Q464.18829478884027 358.41236525938206 464.18829478884027 356.9892153748618L464.18829478884027 356.9892153748618Q464.18829478884027 355.9645474580071 465.61144467336067 354.626786566558Q467.0630575555714 353.2890256751088 469.9093573246122 350.64196688990097L469.9093573246122 350.64196688990097Q475.45964187424147 345.0916823402716 475.45964187424147 338.1182479061218L475.45964187424147 338.1182479061218Q475.45964187424147 329.7216635874517 469.624727347708 324.19984203551275Q463.7613498234841 318.64955748588335 454.7670425533155 315.88864670991387Q445.7442722854564 313.1277359339444 435.69683410074276 313.1277359339444L435.69683410074276 313.1277359339444Q413.15413992994024 313.1277359339444 391.74996566675406 322.6628401602307Q370.31732840587756 332.1979443865171 353.922641736203 348.5926310561917L353.922641736203 348.5926310561917Q343.07823961615793 359.43703317623675 337.21486209193404 372.24538213692Q331.3799475654006 385.05373109760313 331.3799475654006 400.85069481577915L331.3799475654006 400.85069481577915Q331.3799475654006 413.94367375336645 336.19019417507934 422.7672030373927Q341.02890378244865 431.5907323214189 348.6000611680969 437.11255387335785L348.6000611680969 437.11255387335785Q356.3989225352684 442.6343754252968 365.62093378696034 445.19604521743344Q374.84294503865226 447.75771500957006 383.23952935732245 447.75771500957006L383.23952935732245 447.75771500957006Q393.0592635605128 447.75771500957006 404.2452216528428 445.11065622436223Q415.4027167474825 442.43513444146396 426.16172987445634 437.82412881561805Q436.9207430014302 433.21312318977203 445.54503130162357 427.6913016378331L445.54503130162357 427.6913016378331Q449.2167580036861 425.21502083876766 451.57918681198987 423.39338898658156Q453.94161562029376 421.54329413670513 454.96628353714846 420.51862621985043L454.96628353714846 420.51862621985043L461.1142910382763 410.0727060674711Q463.5621088396514 405.9740344000524 467.0630575555714 399.82602689892445Q470.53554327380107 393.6780193977965 475.03269690888544 385.4806760629593L475.03269690888544 385.4806760629593Q468.68544842392464 385.4806760629593 459.064955204567 387.3023079151454Q449.41599898751895 389.1524027650218 438.9700788351396 392.0271655317529L438.9700788351396 392.0271655317529Q432.6228303501788 393.6780193977965 426.3609708582892 395.8127442245771Q420.12757436409004 397.975932049048 418.47672049804646 397.975932049048L418.47672049804646 397.975932049048Q415.0042347798168 397.975932049048 415.0042347798168 394.27574234929506L415.0042347798168 394.27574234929506Q415.0042347798168 393.2510744324405 415.6019577313152 392.5394994901803Q416.22814368050433 391.8279245479201 418.2774795142136 390.8032566310654L418.2774795142136 390.8032566310654Q423.00233713082116 388.1277348481671 430.37425353263666 385.76530603986333Q437.74616993445204 383.43134022925 446.7689402023111 381.7804863632063L446.7689402023111 381.7804863632063Q454.96628353714846 380.12963249716273 462.9643858881527 379.5319095456642Q470.93402524146677 378.9057235964753 478.53364562480544 379.10496458030804L478.53364562480544 379.10496458030804L479.1313685763041 377.8810556796206Q479.95679550932584 375.8317198459113 482.00613134303524 375.8317198459113L482.00613134303524 375.8317198459113Q485.0801350935991 375.8317198459113 485.90556202662094 379.10496458030804L485.90556202662094 379.10496458030804Q491.0289016108942 379.3326685618313 497.57539107968785 380.5565774625189L497.57539107968785 380.5565774625189Q500.8770988117751 381.1543004140174 500.8770988117751 384.2283041645814L500.8770988117751 384.2283041645814Q500.8770988117751 387.3023079151454 497.80309506121114 387.3023079151454L497.80309506121114 387.3023079151454Q496.3514821790003 387.3023079151454 492.16742151851054 386.505343979814Q487.9548978603302 385.6799170467921 483.0307992598898 385.6799170467921L483.0307992598898 385.6799170467921Q478.53364562480544 394.4749833331279 465.21296270569496 417.01767750393043L465.21296270569496 417.01767750393043Q462.5374409227967 421.54329413670513 460.68734607292026 424.81653887110195Q458.86571422073416 428.0897836054988 457.84104630387947 430.3383604230409L457.84104630387947 430.3383604230409Q454.1408566041266 437.51103584102356 452.29076175425007 444.2852292913404L452.29076175425007 444.2852292913404Q451.6930388027515 446.53380610888263 449.8429439528751 446.53380610888263L449.8429439528751 446.53380610888263Q445.7442722854564 446.53380610888263 445.7442722854564 442.8620794068201L445.7442722854564 442.8620794068201Q445.7442722854564 440.3857986077547 448.61903505218754 432.81464122210633L448.61903505218754 432.81464122210633Q439.3970238004956 438.76340773940143 427.6133427566672 443.5736543490803Q415.8296617128385 448.38390095875906 403.7328876944156 451.2586637254902Q391.63611367599253 454.1334264922213 381.19019352361306 454.1334264922213Z " fill="#234e70" transform="matrix(0.6452712896478506,0,0,0.6452712896478506,0,53.11541701957141)"/><path d="M621.586430276734 421.3189149002124L621.586430276734 421.3189149002124Q619.3009300806871 421.3189149002124 619.3009300806871 418.62127532455037L619.3009300806871 418.62127532455037Q619.3009300806871 414.3125454467569 624.0217993380955 403.4470527114518Q628.7426685955039 392.5815599761466 638.1844071103209 375.4590421139588L638.1844071103209 375.4590421139588L663.8119830791096 329.33689881340484L661.2454787605978 329.33689881340484Q629.8104842608701 329.33689881340484 620.237610488903 337.0176781607757L620.237610488903 337.0176781607757Q616.3222863825603 340.12745711605265 614.8423313375791 345.91614203882733L614.8423313375791 345.91614203882733Q614.7111960804289 347.9393717205738 613.081372170133 347.9393717205738L613.081372170133 347.9393717205738Q610.3837325944711 347.9393717205738 610.3837325944711 345.5227362673766L610.3837325944711 345.5227362673766Q610.3837325944711 338.7786373282217 617.8022414275415 333.38335817689773L617.8022414275415 333.38335817689773Q629.0049391098045 325.0094353274471 659.7655237156167 325.0094353274471L659.7655237156167 325.0094353274471Q668.6639875936684 325.0094353274471 677.6935867288702 325.4215747070621L677.6935867288702 325.4215747070621L691.7250592439453 326.35825511527804Q696.0337891217388 326.6392592377428 699.5557074566308 326.82659531938606Q703.0588921833585 327.0326650091935 705.7565317590205 327.0326650091935L705.7565317590205 327.0326650091935Q707.9108966979172 327.0326650091935 707.9108966979172 329.18702994809024L707.9108966979172 329.18702994809024Q707.9108966979172 331.3601284951513 705.7565317590205 331.3601284951513L705.7565317590205 331.3601284951513Q701.035662501612 331.3601284951513 691.7250592439453 330.5358497359212L691.7250592439453 330.5358497359212Q684.9809603047904 329.8614398420057 681.196771455598 329.73030458485545Q677.4313162145697 329.5991693277053 674.3215372592928 329.5991693277053L674.3215372592928 329.5991693277053Q671.4927624264805 329.5991693277053 670.1439426386495 329.524234895048Q668.7951228508185 329.468034070555 668.2518482140533 329.468034070555L668.2518482140533 329.468034070555Q666.6407579119218 333.64562869119817 660.0277942299172 345.5227362673766L660.0277942299172 345.5227362673766L646.408461094457 369.8014924483344Q634.9434928978936 390.2960597800997 629.3421440567622 402.4354378705786Q623.7407952156308 414.5748159610575 623.7407952156308 418.07800068778516L623.7407952156308 418.07800068778516L623.7407952156308 418.75241058170064Q623.7407952156308 421.3189149002124 621.586430276734 421.3189149002124ZM657.0678841399547 416.5980456428039L657.0678841399547 416.5980456428039Q654.8947855928936 416.5980456428039 654.8947855928936 414.8370864753579L654.8947855928936 414.8370864753579Q654.8947855928936 414.03154132429216 655.381859405166 413.2259961732264Q655.850199609274 412.42045102216076 656.1124701235744 411.87717638539544L656.1124701235744 411.87717638539544L668.3829834712035 387.05514556767247Q676.213631683889 371.15031223616535 676.213631683889 369.38935306871934L676.213631683889 369.38935306871934Q676.213631683889 367.4972586441232 678.1057261084852 367.4972586441232L678.1057261084852 367.4972586441232Q680.672230426997 367.4972586441232 680.672230426997 370.0637629626348L680.672230426997 370.0637629626348Q680.672230426997 371.4125827504659 679.4545458963163 374.37249284042827Q678.2368613656355 377.35113653855507 676.3447669410392 381.2664606448978L676.3447669410392 381.2664606448978Q673.103852728612 388.27283009835315 670.9494877897152 392.0570189475457L670.9494877897152 392.0570189475457Q674.9959471532082 387.33614969013723 679.1735417738514 383.13982146132975Q683.3698700026589 378.96222684068647 687.6785998804523 375.19677159965835L687.6785998804523 375.19677159965835Q700.4923878648467 363.9940739173954 707.3676220611519 363.9940739173954L707.3676220611519 363.9940739173954Q712.0884913185604 363.9940739173954 712.0884913185604 368.4526726605034L712.0884913185604 368.4526726605034Q712.0884913185604 372.76140253829686 709.2597164857482 372.76140253829686L709.2597164857482 372.76140253829686Q707.9108966979172 372.76140253829686 707.2364868040017 370.47590234224987L707.2364868040017 370.47590234224987Q706.8243474243867 368.84607843195414 705.3443923794055 368.84607843195414L705.3443923794055 368.84607843195414Q703.0588921833585 368.84607843195414 696.4459285013538 373.8479518118274L696.4459285013538 373.8479518118274Q689.1585549254336 379.24323096315135 681.8149805250205 386.66173979622175Q674.4526725164429 394.08024862929216 666.2286185323068 405.54521682585556L666.2286185323068 405.54521682585556L659.4845195931518 414.9869553406725Q658.9412449563866 415.661365234588 658.4729047522786 416.1297054386959Q658.0045645481706 416.5980456428039 657.0678841399547 416.5980456428039ZM710.8708067878796 414.5748159610575L710.8708067878796 414.5748159610575Q703.0588921833585 414.5748159610575 703.0588921833585 407.15630712798696L703.0588921833585 407.15630712798696Q703.0588921833585 402.3043026134283 705.4193268120626 396.7029537722969Q707.779761440767 391.10160493116535 711.82622080426 385.7812602124987Q715.8726801677528 380.4421818856677 720.8558199394618 376.0585175752171Q725.857693319335 371.67485326476634 731.1031036053444 369.0521481217616Q736.3672474995182 366.429442978757 741.2192520140768 366.429442978757L741.2192520140768 366.429442978757Q749.855445377828 366.429442978757 749.855445377828 374.9157674771936L749.855445377828 374.9157674771936Q749.855445377828 380.4421818856677 747.157805802166 380.4421818856677L747.157805802166 380.4421818856677Q744.7411703489688 380.4421818856677 744.7411703489688 378.1566816896208L744.7411703489688 378.1566816896208Q744.7411703489688 377.2200012814048 745.2095105530768 376.20838644053157Q745.6778507571848 375.19677159965835 745.6778507571848 373.97908706897755L745.6778507571848 373.97908706897755Q745.6778507571848 370.1948982197851 740.5448421201613 370.1948982197851L740.5448421201613 370.1948982197851Q732.3207881360252 370.1948982197851 719.9191395312458 382.74641568987903L719.9191395312458 382.74641568987903Q716.940495833119 385.83746103699167 714.1117210003068 390.03378926579916Q711.2829461674946 394.21138388644243 709.4657861755556 398.4639129397429Q707.6486261836167 402.69770838487904 707.6486261836167 406.4818972340715L707.6486261836167 406.4818972340715Q707.6486261836167 410.11621721794944 711.6950855471097 410.11621721794944L711.6950855471097 410.11621721794944Q715.1982702738374 410.11621721794944 719.169795204673 407.9618522790527Q723.1600537436731 405.807487340156 726.1199638336354 403.5219871441091L726.1199638336354 403.5219871441091Q732.0585176217247 399.0633884010011 738.2593419241143 391.38260905363023L738.2593419241143 391.38260905363023Q739.1960223323304 390.2960597800997 740.6947109854759 388.5351006126537Q742.174666030457 386.79287505337203 744.0667604550533 384.6385101144753L744.0667604550533 384.6385101144753Q744.7411703489688 383.9641002205597 745.6778507571848 383.9641002205597L745.6778507571848 383.9641002205597Q747.8322156960816 383.9641002205597 747.8322156960816 386.11846515945643L747.8322156960816 386.11846515945643L742.7179406672224 393.7992445068274Q737.5849320301988 401.3488885970481 737.5849320301988 406.21962671977104L737.5849320301988 406.21962671977104Q737.5849320301988 409.7228114464987 740.9569814997764 409.7228114464987L740.9569814997764 409.7228114464987Q743.7857563325886 409.7228114464987 747.157805802166 408.2428564015176Q750.5298552717435 406.74416774837204 752.6842202106402 405.2642127033908L752.6842202106402 405.2642127033908Q757.011683696598 402.4354378705786 761.7325529540065 398.18290881727813Q766.4534222114148 393.93037976397767 770.7621520892083 389.62164988618423L770.7621520892083 389.62164988618423Q771.3054267259736 389.0783752494189 772.3919759995041 389.0783752494189L772.3919759995041 389.0783752494189Q774.4152056812505 389.0783752494189 774.4152056812505 390.70819915971475L774.4152056812505 390.70819915971475Q774.4152056812505 392.1881542046959 772.5231112566544 394.08024862929216L772.5231112566544 394.08024862929216Q767.1278321053304 399.4755277806161 762.8003686193726 403.31591745430154Q758.4916387415792 407.15630712798696 754.5763146352365 409.59167618934856L754.5763146352365 409.59167618934856Q752.0098103167247 411.0716312343298 748.2443550756966 412.6827215364612Q744.460166226504 414.3125454467569 739.6081617119454 414.3125454467569L739.6081617119454 414.3125454467569Q732.9951980299406 414.3125454467569 732.9951980299406 407.28744238513724L732.9951980299406 407.28744238513724Q732.9951980299406 404.5898028094753 733.6696079238561 402.84757725019364L733.6696079238561 402.84757725019364Q721.3990945762271 414.5748159610575 710.8708067878796 414.5748159610575ZM774.1342015587858 414.5748159610575L774.1342015587858 414.5748159610575Q772.5231112566544 414.5748159610575 772.5231112566544 413.3571314303767L772.5231112566544 413.3571314303767Q770.3687463177575 409.59167618934856 770.3687463177575 397.8457038703204L770.3687463177575 397.8457038703204Q770.3687463177575 395.0169290375082 770.7621520892083 390.2960597800997Q771.1742914688233 385.57519052269123 771.8487013627389 380.4421818856677Q772.5231112566544 375.3279068568086 773.32865640772 371.07537780350816Q774.1342015587858 366.8228487502077 775.0896155751661 364.9307543256114L775.0896155751661 364.9307543256114Q775.8951607262318 363.3196640234799 777.1128452569126 363.3196640234799L777.1128452569126 363.3196640234799Q779.2672101958092 363.3196640234799 779.2672101958092 365.0806231909259L779.2672101958092 365.0806231909259Q779.2672101958092 366.01730359914194 778.9862060733444 366.8977831828649Q778.723935559044 367.77826276658794 778.4616650447435 368.9772136891043L778.4616650447435 368.9772136891043Q776.7007058772975 375.72131262825934 775.6890910364243 383.28969032664423Q774.677476195551 390.8393344168649 774.677476195551 398.80111788670064L774.677476195551 398.80111788670064Q774.677476195551 402.4354378705786 775.0146811425088 405.2642127033908Q775.3518860894665 408.092987536203 775.7640254690816 410.11621721794944L775.7640254690816 410.11621721794944Q779.5294807101097 408.6362621729682 784.1192147103679 404.2525978625176Q788.7089487106261 399.86893355206684 793.0176785884196 394.4736544007429L793.0176785884196 394.4736544007429Q796.5208633151473 390.03378926579916 799.4245725806168 385.44405526554095Q802.3282818460863 380.85432126528275 804.014306580875 376.80786190178986Q805.7003313156637 372.76140253829686 805.7003313156637 370.1948982197851L805.7003313156637 370.1948982197851Q805.7003313156637 368.4526726605034 805.363126368706 367.77826276658794Q805.0259214217482 367.10385287267246 804.6137820421332 366.6917134930574Q804.2203762706824 366.2795741134424 804.2203762706824 365.2117584480762L804.2203762706824 365.2117584480762Q804.2203762706824 363.18852876632974 806.243605952429 363.18852876632974L806.243605952429 363.18852876632974Q807.59242574026 363.18852876632974 808.6602414056263 365.2117584480762Q809.7467906791567 367.2349881298226 809.7467906791567 370.3260334769354L809.7467906791567 370.3260334769354Q809.7467906791567 379.91764085706683 796.3897280579971 397.1712939764048L796.3897280579971 397.1712939764048Q782.6392596653867 414.5748159610575 774.1342015587858 414.5748159610575ZM823.3661238146168 415.661365234588L823.3661238146168 415.661365234588Q817.7085741489924 415.661365234588 814.4676599365652 411.7460411282453Q811.2267457241379 407.83071702190256 811.2267457241379 402.17316735627804L811.2267457241379 402.17316735627804Q811.2267457241379 392.45042471899643 817.7085741489924 382.2031410531137L817.7085741489924 382.2031410531137Q819.4507997082741 379.3743662203015 821.7550335124854 376.6017922119823Q824.0405337085323 373.8479518118274 826.7381732841943 371.2814474933156L826.7381732841943 371.2814474933156Q830.7846326476872 367.3661233869729 835.2432313907952 364.79961906846114Q839.6830965257388 362.2331147499494 843.8794247545463 362.2331147499494L843.8794247545463 362.2331147499494Q850.7546589508515 362.2331147499494 850.7546589508515 368.71494317480386L850.7546589508515 368.71494317480386Q850.7546589508515 376.80786190178986 841.3129204360347 383.4208255837945L841.3129204360347 383.4208255837945Q832.5455918151333 389.3593793718837 824.0405337085323 389.3593793718837L824.0405337085323 389.3593793718837Q822.560578663551 389.3593793718837 821.4178285655275 389.1533096820762Q820.2750784675042 388.94723999226875 819.3196644511238 388.6849694779682L819.3196644511238 388.6849694779682Q817.9708446632928 391.23274018831563 816.9030289979266 395.27919955180863Q815.8164797243961 399.3256589153015 815.8164797243961 402.3043026134283L815.8164797243961 402.3043026134283Q815.8164797243961 411.20276649147996 823.6471279370816 411.20276649147996L823.6471279370816 411.20276649147996Q829.9790874966216 411.20276649147996 835.636637162246 408.97346711992594Q841.3129204360347 406.74416774837204 849.1248350405558 400.5433434459823L849.1248350405558 400.5433434459823Q853.9955731632788 396.7778882049542 856.4122086164759 394.4736544007429Q858.8475776778375 392.1881542046959 861.6763525106497 389.62164988618423L861.6763525106497 389.62164988618423Q862.4818976617155 389.0783752494189 863.156307555631 389.0783752494189L863.156307555631 389.0783752494189Q863.8307174495465 389.0783752494189 864.5051273434619 389.49051462903395Q865.1795372373774 389.88392040048467 865.1795372373774 390.70819915971475L865.1795372373774 390.70819915971475Q865.1795372373774 392.1881542046959 862.4818976617155 394.8857937803579L862.4818976617155 394.8857937803579Q860.1963974656685 397.04015871925463 857.6298931471567 399.4005933479588Q855.063388828645 401.7610279766631 849.5369744201708 405.9386225973063L849.5369744201708 405.9386225973063Q843.5984206320816 410.5283565975645 836.5920511786262 413.09486091607624Q829.5669481170064 415.661365234588 823.3661238146168 415.661365234588ZM823.2349885574665 385.0319158859259L823.2349885574665 385.0319158859259Q827.54371843526 385.0319158859259 831.4590425416027 383.68309609809495Q835.3743666479454 382.334276310264 838.8775513746731 379.7677719917522L838.8775513746731 379.7677719917522Q846.7081995873586 373.97908706897755 846.7081995873586 368.84607843195414L846.7081995873586 368.84607843195414Q846.7081995873586 366.56057823590714 843.8794247545463 366.56057823590714L843.8794247545463 366.56057823590714Q838.4841456032225 366.56057823590714 831.3279072844525 373.1735419179119L831.3279072844525 373.1735419179119Q827.8247225577247 376.3957225221748 825.5954231861708 379.03716127334377Q823.3661238146168 381.6598664163485 821.4740293900205 384.7696453716255L821.4740293900205 384.7696453716255Q822.2983081492506 385.0319158859259 823.2349885574665 385.0319158859259ZM872.0547714336826 416.86031615710436L872.0547714336826 416.86031615710436Q865.8539471312929 416.86031615710436 862.5568320943727 413.01992648341894Q859.2409834492881 409.1795368097335 859.2409834492881 402.84757725019364L859.2409834492881 402.84757725019364Q859.2409834492881 398.2578432499353 860.870807359584 391.77601482508095L860.870807359584 391.77601482508095Q863.6995821923962 380.85432126528275 870.4436811315511 366.429442978757L870.4436811315511 366.429442978757Q875.7078250257248 355.48901581079446 881.7775140709642 344.9045271979541Q887.8472031162037 334.32003858511376 895.1345766921238 324.07275491923104L895.1345766921238 324.07275491923104Q906.7306801458375 307.60591334279445 911.3204141460958 307.60591334279445L911.3204141460958 307.60591334279445Q914.2803242360582 307.60591334279445 914.2803242360582 309.2357372530902L914.2803242360582 309.2357372530902Q914.2803242360582 311.5212374491372 906.7306801458375 320.70070544965364L906.7306801458375 320.70070544965364L897.2889416310206 332.16567364621704Q885.0184282833916 347.00269131235785 877.2627145033633 362.51411887241426Q869.5070007233352 378.02554643247055 865.1795372373774 393.53697399252695L865.1795372373774 393.53697399252695Q863.9618527066966 397.97683912747056 863.9618527066966 401.8921632338133L863.9618527066966 401.8921632338133Q863.9618527066966 412.139446899696 872.3357755561474 412.139446899696L872.3357755561474 412.139446899696Q875.2956856461099 412.139446899696 878.4054646013868 410.3972213404142L878.4054646013868 410.3972213404142Q881.4965099484995 408.7673974301185 881.7775140709642 408.7673974301185L881.7775140709642 408.7673974301185Q883.3886043730957 408.7673974301185 883.3886043730957 411.0716312343298L883.3886043730957 411.0716312343298Q883.3886043730957 413.09486091607624 881.9086493281145 414.16267658144244L881.9086493281145 414.16267658144244Q877.3189153278563 416.86031615710436 872.0547714336826 416.86031615710436ZM906.1874055090723 416.86031615710436L906.1874055090723 416.86031615710436Q899.9865812066826 416.86031615710436 896.6707325615981 413.01992648341894Q893.3736175246779 409.1795368097335 893.3736175246779 402.84757725019364L893.3736175246779 402.84757725019364Q893.3736175246779 398.2578432499353 894.9847078268094 391.77601482508095L894.9847078268094 391.77601482508095Q897.8322162677858 380.85432126528275 904.5763152069408 366.429442978757L904.5763152069408 366.429442978757Q909.8217254929502 355.48901581079446 915.8914145381897 344.9045271979541Q921.9611035834291 334.32003858511376 929.2484771593492 324.07275491923104L929.2484771593492 324.07275491923104Q940.8445806130628 307.60591334279445 945.4343146133211 307.60591334279445L945.4343146133211 307.60591334279445Q948.4129583114479 307.60591334279445 948.4129583114479 309.2357372530902L948.4129583114479 309.2357372530902Q948.4129583114479 311.5212374491372 940.8445806130628 320.70070544965364L940.8445806130628 320.70070544965364L931.4028420982461 332.16567364621704Q919.1323287506168 347.00269131235785 911.3766149705887 362.51411887241426Q903.6209011905605 378.02554643247055 899.3121713127671 393.53697399252695L899.3121713127671 393.53697399252695Q898.0944867820863 397.97683912747056 898.0944867820863 401.8921632338133L898.0944867820863 401.8921632338133Q898.0944867820863 412.139446899696 906.4496760233728 412.139446899696L906.4496760233728 412.139446899696Q909.4283197214995 412.139446899696 912.5193650686122 410.3972213404142L912.5193650686122 410.3972213404142Q915.6291440238892 408.7673974301185 915.8914145381897 408.7673974301185L915.8914145381897 408.7673974301185Q917.5212384484854 408.7673974301185 917.5212384484854 411.0716312343298L917.5212384484854 411.0716312343298Q917.5212384484854 413.09486091607624 916.0412834035042 414.16267658144244L916.0412834035042 414.16267658144244Q911.451549403246 416.86031615710436 906.1874055090723 416.86031615710436ZM937.7535352659502 415.661365234588L937.7535352659502 415.661365234588Q932.0772519921615 415.661365234588 928.8550713878985 411.7460411282453Q925.6141571754713 407.83071702190256 925.6141571754713 402.17316735627804L925.6141571754713 402.17316735627804Q925.6141571754713 392.45042471899643 932.0772519921615 382.2031410531137L932.0772519921615 382.2031410531137Q933.8382111596076 379.3743662203015 936.1237113556545 376.6017922119823Q938.4279451598657 373.8479518118274 941.1255847355277 371.2814474933156L941.1255847355277 371.2814474933156Q945.1720440990207 367.3661233869729 949.6119092339643 364.79961906846114Q954.0705079770723 362.2331147499494 958.2481025977155 362.2331147499494L958.2481025977155 362.2331147499494Q965.1233367940207 362.2331147499494 965.1233367940207 368.71494317480386L965.1233367940207 368.71494317480386Q965.1233367940207 376.80786190178986 955.6815982792039 383.4208255837945L955.6815982792039 383.4208255837945Q946.9142696583024 389.3593793718837 938.4279451598657 389.3593793718837L938.4279451598657 389.3593793718837Q936.9479901148845 389.3593793718837 935.7865064086967 389.1533096820762Q934.6437563106732 388.94723999226875 933.7070759024573 388.6849694779682L933.7070759024573 388.6849694779682Q932.3582561146263 391.23274018831563 931.2717068410957 395.27919955180863Q930.2038911757295 399.3256589153015 930.2038911757295 402.3043026134283L930.2038911757295 402.3043026134283Q930.2038911757295 411.20276649147996 938.0158057802507 411.20276649147996L938.0158057802507 411.20276649147996Q944.3664989479549 411.20276649147996 950.0240486135793 408.97346711992594Q955.6815982792039 406.74416774837204 963.5122464918892 400.5433434459823L963.5122464918892 400.5433434459823Q968.3642510064478 396.7778882049542 970.7996200678094 394.4736544007429Q973.2162555210066 392.1881542046959 976.0637639619831 389.62164988618423L976.0637639619831 389.62164988618423Q976.869309113049 389.0783752494189 977.5437190069642 389.0783752494189L977.5437190069642 389.0783752494189Q978.2181289008798 389.0783752494189 978.8925387947953 389.49051462903395Q979.5669486887109 389.88392040048467 979.5669486887109 390.70819915971475L979.5669486887109 390.70819915971475Q979.5669486887109 392.1881542046959 976.869309113049 394.8857937803579L976.869309113049 394.8857937803579Q974.5650753088375 397.04015871925463 972.0173045984902 399.4005933479588Q969.4508002799785 401.7610279766631 963.9243858715042 405.9386225973063L963.9243858715042 405.9386225973063Q957.9858320834151 410.5283565975645 950.9607290217953 413.09486091607624Q943.9543595683399 415.661365234588 937.7535352659502 415.661365234588ZM937.6224000088 385.0319158859259L937.6224000088 385.0319158859259Q941.9311298865935 385.0319158859259 945.8464539929362 383.68309609809495Q949.7617780992789 382.334276310264 953.2649628260066 379.7677719917522L953.2649628260066 379.7677719917522Q961.0768774305277 373.97908706897755 961.0768774305277 368.84607843195414L961.0768774305277 368.84607843195414Q961.0768774305277 366.56057823590714 958.2481025977155 366.56057823590714L958.2481025977155 366.56057823590714Q952.8528234463915 366.56057823590714 945.7153187357859 373.1735419179119L945.7153187357859 373.1735419179119Q942.1934004008939 376.3957225221748 939.9828346375043 379.03716127334377Q937.7535352659502 381.6598664163485 935.8614408413539 384.7696453716255L935.8614408413539 384.7696453716255Q936.6669859924198 385.0319158859259 937.6224000088 385.0319158859259ZM967.0154312186169 416.5980456428039L967.0154312186169 416.5980456428039Q964.8610662797201 416.5980456428039 964.8610662797201 414.8370864753579L964.8610662797201 414.8370864753579Q964.8610662797201 414.03154132429216 965.3294064838282 413.2259961732264Q965.7977466879362 412.42045102216076 966.0787508104008 411.87717638539544L966.0787508104008 411.87717638539544L978.3492641580301 387.05514556767247Q986.1799123707156 371.15031223616535 986.1799123707156 369.38935306871934L986.1799123707156 369.38935306871934Q986.1799123707156 367.4972586441232 988.0532731871475 367.4972586441232L988.0532731871475 367.4972586441232Q990.6197775056592 367.4972586441232 990.6197775056592 370.0637629626348L990.6197775056592 370.0637629626348Q990.6197775056592 371.4125827504659 989.4020929749784 374.37249284042827Q988.203142052462 377.35113653855507 986.3110476278657 381.2664606448978L986.3110476278657 381.2664606448978Q983.0701334154385 388.27283009835315 980.9157684765419 392.0570189475457L980.9157684765419 392.0570189475457Q984.9622278400348 387.33614969013723 989.139822460678 383.13982146132975Q993.3174170813212 378.96222684068647 997.644880567279 375.19677159965835L997.644880567279 375.19677159965835Q1010.4586685516733 363.9940739173954 1017.3339027479785 363.9940739173954L1017.3339027479785 363.9940739173954Q1022.0547720053869 363.9940739173954 1022.0547720053869 368.4526726605034L1022.0547720053869 368.4526726605034Q1022.0547720053869 372.76140253829686 1019.2259971725748 372.76140253829686L1019.2259971725748 372.76140253829686Q1017.8771773847437 372.76140253829686 1017.2027674908283 370.47590234224987L1017.2027674908283 370.47590234224987Q1016.7906281112132 368.84607843195414 1015.310673066232 368.84607843195414L1015.310673066232 368.84607843195414Q1013.0064392620206 368.84607843195414 1006.4122091881803 373.8479518118274L1006.4122091881803 373.8479518118274Q999.1248356122601 379.24323096315135 991.7625276036827 386.66173979622175Q984.4189532032694 394.08024862929216 976.1948992191334 405.54521682585556L976.1948992191334 405.54521682585556L969.4508002799785 414.9869553406725Q968.9075256432131 415.661365234588 968.4391854391051 416.1297054386959Q967.9708452349972 416.5980456428039 967.0154312186169 416.5980456428039ZM1017.7273085194291 417.68459491633445L1017.7273085194291 417.68459491633445Q1010.1776644292086 417.68459491633445 1010.1776644292086 412.6827215364612L1010.1776644292086 412.6827215364612Q1010.1776644292086 409.59167618934856 1012.4069638007625 406.4818972340715Q1014.6362631723165 403.3721182787945 1017.7273085194291 400.8243475684471Q1020.8370874747062 398.2578432499353 1023.5347270503682 396.90902346210436L1023.5347270503682 396.90902346210436Q1024.340272201434 396.4968840824893 1025.7640264219222 396.1034783110386Q1027.169047034246 395.6913389314237 1028.1244610506265 395.6913389314237L1028.1244610506265 395.6913389314237Q1029.1922767159926 395.6913389314237 1029.1922767159926 396.4968840824893L1029.1922767159926 396.4968840824893Q1029.1922767159926 397.1712939764048 1027.7123216710115 397.97683912747056L1027.7123216710115 397.97683912747056Q1021.5114973686217 400.95548282559736 1018.0645134663869 405.0581430135832Q1014.6362631723165 409.1795368097335 1014.6362631723165 411.7460411282453L1014.6362631723165 411.7460411282453Q1014.6362631723165 414.16267658144244 1018.8138577929597 414.16267658144244L1018.8138577929597 414.16267658144244Q1022.3170425196874 414.16267658144244 1026.4384363158379 412.42045102216076Q1030.5410965038236 410.65949185471476 1034.2503509203589 407.83071702190256Q1037.9596053368941 405.00194218909036 1040.3949743982557 401.7610279766631Q1042.8303434596169 398.5201137642359 1042.8303434596169 395.5602036742734L1042.8303434596169 395.5602036742734Q1042.8303434596169 393.53697399252695 1041.5377244962792 391.9071500822311Q1040.263839141105 390.2960597800997 1037.435064308293 389.49051462903395L1037.435064308293 389.49051462903395L1028.517866822077 386.79287505337203Q1025.1458173524998 385.7063257798415 1023.6658623075184 383.9641002205597Q1022.1859072625372 382.2031410531137 1022.1859072625372 380.048776114217L1022.1859072625372 380.048776114217Q1022.1859072625372 376.0023167507241 1025.220751785157 372.76140253829686Q1028.2555963077766 369.5204883258696 1032.845330308035 367.62839390127334Q1037.435064308293 365.7550330848415 1041.7437941860867 365.7550330848415L1041.7437941860867 365.7550330848415Q1046.05252406388 365.7550330848415 1049.2934382763074 367.8344635910809Q1052.5343524887344 369.93262770548466 1052.5343524887344 373.43581243221234L1052.5343524887344 373.43581243221234Q1052.5343524887344 375.4590421139588 1051.391602390711 377.2200012814048Q1050.2488522926874 378.96222684068647 1048.7501636395418 378.96222684068647L1048.7501636395418 378.96222684068647Q1046.4646634434948 378.96222684068647 1046.4646634434948 377.0701324160903L1046.4646634434948 377.0701324160903Q1046.4646634434948 376.3957225221748 1047.2140077700678 375.3841076813016Q1047.9446184884764 374.37249284042827 1047.9446184884764 373.43581243221234L1047.9446184884764 373.43581243221234Q1047.9446184884764 369.38935306871934 1041.7437941860867 369.38935306871934L1041.7437941860867 369.38935306871934Q1038.371744716509 369.38935306871934 1035.0746296795887 370.8131072892076Q1031.7587810345044 372.21812790153155 1029.6044160956076 374.52236170574287Q1027.4500511567112 376.80786190178986 1027.4500511567112 379.5055014774518L1027.4500511567112 379.5055014774518Q1027.4500511567112 382.2031410531137 1032.845330308035 383.8142313552452L1032.845330308035 383.8142313552452L1041.481523671786 386.51187093090715Q1045.3781141699646 387.72955546158795 1046.8768028231102 389.8277195759917Q1048.3567578680913 391.9071500822311 1048.3567578680913 394.4736544007429L1048.3567578680913 394.4736544007429Q1048.3567578680913 400.5433434459823 1040.9382490350208 407.0251718708368L1040.9382490350208 407.0251718708368Q1028.9300062016923 417.68459491633445 1017.7273085194291 417.68459491633445ZM1098.2630900178378 457.6059139144988L1097.7198153810723 457.6059139144988Q1092.0622657154481 457.6059139144988 1089.2147572744716 453.3533848611983Q1086.3859824416595 449.10085580789786 1086.3859824416595 443.7055766565739L1086.3859824416595 443.7055766565739Q1086.3859824416595 439.6591172930809 1086.7231873886171 435.8187276193955Q1087.0603923355748 431.97833794571005 1087.7348022294905 428.1941490965176L1087.7348022294905 428.1941490965176Q1088.1469416091054 426.0397841576209 1089.6268966540865 426.0397841576209L1089.6268966540865 426.0397841576209Q1092.3245362297484 426.0397841576209 1092.3245362297484 428.8685589904331L1092.3245362297484 428.8685589904331Q1092.3245362297484 429.67410414149873 1091.9123968501335 431.30392805179457L1091.9123968501335 431.30392805179457Q1091.5189910786826 432.65274783962553 1091.5189910786826 433.327157733541L1091.5189910786826 433.327157733541Q1091.2379869562178 435.48152267243773 1091.1068516990676 437.8419573011419Q1090.9757164419175 440.2023919298462 1090.9757164419175 442.6377609912077L1090.9757164419175 442.6377609912077Q1090.9757164419175 453.278450428541 1098.806364654603 453.278450428541L1098.806364654603 453.278450428541Q1101.09186485065 453.278450428541 1104.12670937327 450.1874050814284Q1107.1615538958895 447.0776261261513 1109.596922957251 443.44330614227346L1109.596922957251 443.44330614227346Q1115.2544726228753 434.93824803567253 1121.5864321824151 416.5980456428039L1121.5864321824151 416.5980456428039L1126.0450309255234 403.78425765840956Q1115.123337365725 416.86031615710436 1106.3560087448236 416.86031615710436L1106.3560087448236 416.86031615710436Q1100.9607295934998 416.86031615710436 1097.982085895373 412.8138567936115Q1095.0221758054104 408.7673974301185 1095.0221758054104 402.9787125073438L1095.0221758054104 402.9787125073438Q1095.0221758054104 391.38260905363023 1105.269459471293 377.35113653855507L1105.269459471293 377.35113653855507Q1116.472157153556 362.382983615264 1127.2627154562042 362.382983615264L1127.2627154562042 362.382983615264Q1135.7490399546405 362.382983615264 1138.4466795303024 372.3492631586818L1138.4466795303024 372.3492631586818Q1143.579688167326 359.9476145539025 1147.8884180451196 359.9476145539025L1147.8884180451196 359.9476145539025Q1149.5182419554153 359.9476145539025 1149.5182419554153 362.6452541295644L1149.5182419554153 362.6452541295644Q1149.5182419554153 368.0405332808884 1144.516368575542 377.0701324160903L1144.516368575542 377.0701324160903Q1143.4485529101757 378.8310915835363 1141.8936634325373 381.39759590204807Q1140.338773954899 383.9641002205597 1138.4466795303024 387.4672849472875L1138.4466795303024 387.4672849472875L1133.8756791382089 398.65124902138604Q1132.526859350378 401.8921632338133 1130.5036296686312 406.8191021810292Q1128.4803999868845 411.7460411282453 1125.9138956683728 418.3590048102499L1125.9138956683728 418.3590048102499Q1122.935251970246 426.4519235372358 1120.4436820843916 432.3155428926678Q1117.9521121985372 438.17916224809966 1115.928882516791 441.9633510972922L1115.928882516791 441.9633510972922Q1107.1615538958895 457.6059139144988 1098.2630900178378 457.6059139144988L1098.2630900178378 457.6059139144988ZM1106.3560087448236 412.139446899696L1106.3560087448236 412.139446899696Q1114.8423332432603 412.139446899696 1131.4403100768473 389.3593793718837L1131.4403100768473 389.3593793718837L1135.35563418319 379.3743662203015Q1134.4002201668095 378.69995632638603 1134.006814395359 376.5455913874893L1134.006814395359 376.5455913874893Q1132.7891298646782 370.7381728565504 1131.1780395625465 368.84607843195414Q1129.5482156522507 366.95398400735786 1126.8505760765888 366.95398400735786L1126.8505760765888 366.95398400735786Q1123.7595307294764 366.95398400735786 1119.713071365983 369.8014924483344Q1115.6666120024902 372.6302672811466 1112.0135584104482 376.73292746913256Q1108.3792384265703 380.85432126528275 1106.2248734876734 384.7696453716255L1106.2248734876734 384.7696453716255Q1099.743045062819 395.82247418857384 1099.743045062819 403.78425765840956L1099.743045062819 403.78425765840956Q1099.743045062819 412.139446899696 1106.3560087448236 412.139446899696ZM1185.8052409697016 417.8157301734847L1185.8052409697016 417.8157301734847Q1179.192277287697 417.8157301734847 1179.192277287697 408.2428564015176L1179.192277287697 408.2428564015176Q1179.192277287697 403.1098477644941 1181.608912740894 395.82247418857384L1181.608912740894 395.82247418857384Q1165.291940029772 414.8370864753579 1155.9813367721054 414.8370864753579L1155.9813367721054 414.8370864753579Q1148.3005574247345 414.8370864753579 1148.3005574247345 405.54521682585556L1148.3005574247345 405.54521682585556Q1148.3005574247345 402.02329849096355 1149.443307522758 397.11509315191194Q1150.5860576207815 392.1881542046959 1152.5530864780349 386.9240103105222Q1154.5013817271242 381.6598664163485 1156.8056155313352 377.0701324160903Q1159.0911157273827 372.4991320239964 1161.3766159234292 369.6516235830199L1161.3766159234292 369.6516235830199Q1162.2008946826595 368.71494317480386 1163.3998456051759 368.71494317480386L1163.3998456051759 368.71494317480386Q1164.0742554990911 368.71494317480386 1164.7486653930068 369.1832833789119Q1165.4230752869225 369.6516235830199 1165.4230752869225 370.60703759940014L1165.4230752869225 370.60703759940014Q1165.4230752869225 371.4125827504659 1164.4863948787065 372.89253779544714L1164.4863948787065 372.89253779544714Q1158.416705833467 382.8775509470293 1155.8502015149552 390.2960597800997L1155.8502015149552 390.2960597800997Q1152.6092873025277 398.80111788670064 1152.6092873025277 405.00194218909036L1152.6092873025277 405.00194218909036Q1152.6092873025277 410.7906271118649 1155.5879310006549 410.7906271118649L1155.5879310006549 410.7906271118649Q1157.480025425251 410.7906271118649 1160.5710707723638 408.9172662954331Q1163.6808497276406 407.0251718708368 1166.977964764561 404.2525978625176Q1170.2938134096453 401.49875746236256 1172.7104488628424 399.0633884010011L1172.7104488628424 399.0633884010011Q1179.4545478019973 391.9071500822311 1184.8498269533216 383.8142313552452L1184.8498269533216 383.8142313552452Q1187.2851960146827 380.048776114217 1189.233491263772 376.470656954832Q1191.2005201210254 372.89253779544714 1192.8116104231572 368.9772136891043L1192.8116104231572 368.9772136891043Q1193.4860203170724 367.4972586441232 1193.9543605211807 366.7666479257147Q1194.4227007252885 366.01730359914194 1195.378114741669 366.01730359914194L1195.378114741669 366.01730359914194Q1198.206889574481 366.01730359914194 1198.206889574481 368.17166853803866L1198.206889574481 368.17166853803866Q1198.206889574481 369.5204883258696 1197.270209166265 370.0637629626348L1197.270209166265 370.0637629626348Q1183.5010071654906 397.97683912747056 1183.5010071654906 408.50512691581804L1183.5010071654906 408.50512691581804Q1183.5010071654906 411.33390174863024 1184.0442818022557 412.47665184665374Q1184.5875564390208 413.63813555284145 1185.9363762268517 413.63813555284145L1185.9363762268517 413.63813555284145Q1187.8284706514482 413.63813555284145 1191.7999955822838 411.20276649147996Q1195.7715205131194 408.7673974301185 1201.1667996644433 403.78425765840956L1201.1667996644433 403.78425765840956L1215.3294074366686 390.8393344168649Q1216.4159567101992 389.7527851433344 1217.3526371184153 389.7527851433344L1217.3526371184153 389.7527851433344Q1219.525735665476 389.7527851433344 1219.525735665476 391.77601482508095L1219.525735665476 391.77601482508095Q1219.525735665476 393.53697399252695 1211.0206775588754 401.2177533398978L1211.0206775588754 401.2177533398978Q1207.3863575749974 404.5898028094753 1204.538849134021 406.8940366136865Q1201.7100743012088 409.1795368097335 1199.2934388480116 410.9404959771795L1199.2934388480116 410.9404959771795Q1194.7037048477532 414.16267658144244 1191.2005201210254 415.99857018154574Q1187.6786017861336 417.8157301734847 1185.8052409697016 417.8157301734847ZM1240.4324423768562 360.07874981105266L1240.4324423768562 360.07874981105266Q1238.1282085726452 360.07874981105266 1238.1282085726452 357.7932496150058L1238.1282085726452 357.7932496150058Q1238.1282085726452 357.1188397210903 1239.0836225890257 355.3016797291513Q1240.0203029972413 353.465786129048 1241.237987527922 351.59242531261606Q1242.4556720586029 349.7003308880199 1243.1300819525181 349.0259209941043L1243.1300819525181 349.0259209941043Q1245.4155821485651 346.45941667559265 1246.6894675037393 345.78500678167717Q1247.982086467077 345.1105968877616 1249.049902132443 345.1105968877616L1249.049902132443 345.1105968877616Q1251.8974105734196 345.1105968877616 1251.8974105734196 347.67710120627333L1251.8974105734196 347.67710120627333Q1251.8974105734196 348.61378161448937 1250.7359268672321 349.90640057782736Q1249.5931767692086 351.180285933001 1248.1132217242275 352.26683520653154L1248.1132217242275 352.26683520653154Q1245.9588567853307 353.6156549943626 1245.4155821485651 354.42120014542826L1245.4155821485651 354.42120014542826L1242.4556720586029 358.59879476607153Q1242.3058031932883 359.14206940283674 1241.8374629891805 359.61040960694476Q1241.3691227850722 360.07874981105266 1240.4324423768562 360.07874981105266ZM1217.5025059837299 414.70595121820764L1217.5025059837299 414.70595121820764Q1213.7183171345373 414.70595121820764 1212.0322923997487 413.2259961732264Q1210.3462676649597 411.7460411282453 1210.3462676649597 408.7673974301185L1210.3462676649597 408.7673974301185Q1210.3462676649597 405.9386225973063 1212.107226832406 401.01168365009033Q1213.8494523916875 396.1034783110386 1216.6220264000067 390.4271950372499Q1219.3758668001615 384.7696453716255 1222.4856457554383 379.63663673460206Q1225.5954247107156 374.52236170574287 1228.4804003680206 371.2065130606583Q1231.3841096334904 367.9093980237382 1233.1450688009363 367.9093980237382L1233.1450688009363 367.9093980237382Q1235.5617042541335 367.9093980237382 1235.5617042541335 370.0637629626348L1235.5617042541335 370.0637629626348Q1235.5617042541335 371.4125827504659 1233.2762040580865 375.19677159965835Q1230.9907038620395 378.96222684068647 1228.2930642863776 383.00868620417947L1228.2930642863776 383.00868620417947Q1227.206515012847 384.4886412491607 1225.3144205882509 387.05514556767247Q1223.4223261636544 389.62164988618423 1221.680100604373 391.85094925773814Q1219.919141436927 394.08024862929216 1219.3758668001615 394.8857937803579L1219.3758668001615 394.8857937803579Q1218.0270470123305 396.90902346210436 1216.5470919673494 401.49875746236256L1216.5470919673494 401.49875746236256Q1214.936001665218 406.06975785445655 1214.936001665218 408.50512691581804L1214.936001665218 408.50512691581804Q1214.936001665218 409.59167618934856 1215.4043418693263 410.11621721794944Q1215.8726820734341 410.65949185471476 1217.63364124088 410.65949185471476L1217.63364124088 410.65949185471476Q1221.0056907104572 410.65949185471476 1225.1832853311007 408.50512691581804Q1229.3608799517438 406.3507619769213 1233.6883434377014 403.0349133318368Q1237.997073315495 399.73779829491656 1241.8374629891805 396.2346135681889Q1245.677852662866 392.7314288414612 1248.3754922385278 390.16492452294943L1248.3754922385278 390.16492452294943Q1248.918766875293 389.62164988618423 1250.0053161488236 389.62164988618423L1250.0053161488236 389.62164988618423Q1252.0285458305702 389.62164988618423 1252.0285458305702 391.23274018831563L1252.0285458305702 391.23274018831563Q1252.0285458305702 392.7314288414612 1250.1364514059737 394.60478965789315L1250.1364514059737 394.60478965789315Q1246.5021314220958 398.2578432499353 1243.392352466819 401.0866180827475Q1240.282573511542 403.91539291555983 1237.4537986787295 406.06975785445655L1237.4537986787295 406.06975785445655Q1233.0139335437862 409.3106720668837 1227.6186543924623 412.0083116425457Q1222.223375241138 414.70595121820764 1217.5025059837299 414.70595121820764ZM1287.9034054652416 425.23423900655513L1287.9034054652416 425.23423900655513Q1286.816856191711 425.23423900655513 1285.2807003222365 424.2226241656819Q1283.725810844598 423.2110093248086 1282.9202656935327 422.2555953084283L1282.9202656935327 422.2555953084283Q1281.2904417832365 420.2323656266819 1280.7471671464714 417.4035907938697Q1280.2226261178703 414.5748159610575 1280.2226261178703 411.20276649147996L1280.2226261178703 411.20276649147996Q1280.2226261178703 408.37399165866776 1280.4099621995138 405.0581430135832Q1280.6160318893212 401.7610279766631 1281.1593065260863 397.97683912747056L1281.1593065260863 397.97683912747056Q1277.656121799359 402.02329849096355 1273.272457488908 405.8824217728133Q1268.8887931784575 409.7228114464987 1264.3739936108564 412.139446899696Q1259.8404604350912 414.5748159610575 1255.7940010715984 414.5748159610575L1255.7940010715984 414.5748159610575Q1245.677852662866 414.5748159610575 1245.677852662866 403.78425765840956L1245.677852662866 403.78425765840956Q1245.677852662866 392.5815599761466 1253.5085008755514 382.2031410531137L1253.5085008755514 382.2031410531137Q1257.423824981894 377.0701324160903 1262.406964753603 372.3492631586818Q1267.4088381334764 367.62839390127334 1272.9352525419504 364.668483811311Q1278.4616669504244 361.7085737213485 1283.8569461017487 361.7085737213485L1283.8569461017487 361.7085737213485Q1287.9034054652416 361.7085737213485 1291.0131844205184 364.79961906846114L1291.0131844205184 364.79961906846114Q1291.2754549348192 364.25634443169594 1291.743795138927 363.05739350917946Q1292.2121353430348 361.8397089784988 1293.1675493594153 359.9476145539025L1293.1675493594153 359.9476145539025Q1296.4084635718423 352.941245100447 1300.305054070021 345.31666657756915Q1304.2203781763633 337.69208805469117 1307.3301571316406 332.70894828298225L1307.3301571316406 332.70894828298225Q1310.8333418583684 327.1638002663438 1313.9431208136452 327.1638002663438L1313.9431208136452 327.1638002663438Q1316.097485752542 327.1638002663438 1316.097485752542 330.5358497359212L1316.097485752542 330.5358497359212Q1316.097485752542 336.3432682668602 1305.1757921927438 357.6621143578555L1305.1757921927438 357.6621143578555Q1304.5013822988285 358.861065280372 1302.8153575640395 362.04577866830624Q1301.1293328292509 365.2117584480762 1298.9000334576967 369.31441863606216Q1296.670734086143 373.43581243221234 1294.385233890096 377.48227179570534Q1292.0810000858846 381.52873115919823 1290.2638400939459 384.69471093896817Q1288.4466801020067 387.8606907187382 1287.6411349509408 389.0783752494189L1287.6411349509408 389.0783752494189Q1286.1424462977952 395.14806429465835 1285.3369011467298 400.6182778786396Q1284.531355995664 406.06975785445655 1284.531355995664 411.87717638539544L1284.531355995664 411.87717638539544Q1284.531355995664 414.03154132429216 1284.7374256854714 415.84870131623114Q1284.9434953752789 417.68459491633445 1285.7490405263447 418.75241058170064L1285.7490405263447 418.75241058170064Q1286.42345042026 419.5579557327664 1287.2289955713259 420.04502954503863Q1288.0345407223917 420.51336974914665 1289.121089995922 420.90677552059736L1289.121089995922 420.90677552059736Q1290.7321802980537 421.3189149002124 1290.7321802980537 422.79886994519364L1290.7321802980537 422.79886994519364Q1290.7321802980537 425.23423900655513 1287.9034054652416 425.23423900655513ZM1294.2353650247815 368.84607843195414L1294.2353650247815 368.84607843195414Q1299.368373661805 360.07874981105266 1303.2836977681472 352.4541712881748Q1307.1990218744904 344.84832637346113 1309.6156573276876 338.1042274343062L1309.6156573276876 338.1042274343062Q1304.2203781763633 345.1105968877616 1300.5860581924858 352.941245100447Q1296.9330046004434 360.75315970496825 1294.2353650247815 368.84607843195414ZM1254.8573206633823 410.5283565975645L1254.8573206633823 410.5283565975645Q1258.772644769725 410.5283565975645 1263.1563090801756 407.90565145455975Q1267.5399733906265 405.2642127033908 1271.4552974969693 401.62989271951284L1271.4552974969693 401.62989271951284Q1274.9584822236966 398.3889785070856 1277.9183923136593 394.9419946048509Q1280.897036011786 391.5137443107804 1283.4448067221333 387.8606907187382L1283.4448067221333 387.8606907187382Q1284.531355995664 383.13982146132975 1285.9551102161522 378.56882106923587Q1287.360130828476 373.97908706897755 1289.121089995922 369.38935306871934L1289.121089995922 369.38935306871934Q1286.9667250570255 366.01730359914194 1283.0514009506828 366.01730359914194L1283.0514009506828 366.01730359914194Q1279.00494158719 366.01730359914194 1274.0780026399739 369.0521481217616Q1269.1510636927578 372.0869926443814 1264.6362641251567 376.5455913874893Q1260.121464557556 380.985456522433 1256.8805503451285 385.0319158859259L1256.8805503451285 385.0319158859259Q1250.1364514059737 394.08024862929216 1250.1364514059737 404.1963970380246L1250.1364514059737 404.1963970380246Q1250.1364514059737 410.5283565975645 1254.8573206633823 410.5283565975645ZM1314.2053913279456 415.661365234588L1314.2053913279456 415.661365234588Q1308.5478416623214 415.661365234588 1305.306927449894 411.7460411282453Q1302.066013237467 407.83071702190256 1302.066013237467 402.17316735627804L1302.066013237467 402.17316735627804Q1302.066013237467 392.45042471899643 1308.5478416623214 382.2031410531137L1308.5478416623214 382.2031410531137Q1310.2900672216028 379.3743662203015 1312.5943010258143 376.6017922119823Q1314.8798012218613 373.8479518118274 1317.5774407975232 371.2814474933156L1317.5774407975232 371.2814474933156Q1321.623900161016 367.3661233869729 1326.082498904124 364.79961906846114Q1330.5223640390677 362.2331147499494 1334.6999586597108 362.2331147499494L1334.6999586597108 362.2331147499494Q1341.5939264641802 362.2331147499494 1341.5939264641802 368.71494317480386L1341.5939264641802 368.71494317480386Q1341.5939264641802 376.80786190178986 1332.1521879493635 383.4208255837945L1332.1521879493635 383.4208255837945Q1323.384859328462 389.3593793718837 1314.8798012218613 389.3593793718837L1314.8798012218613 389.3593793718837Q1313.3998461768801 389.3593793718837 1312.2570960788566 389.1533096820762Q1311.0956123726687 388.94723999226875 1310.1589319644527 388.6849694779682L1310.1589319644527 388.6849694779682Q1308.8101121766217 391.23274018831563 1307.723562903091 395.27919955180863Q1306.6557472377249 399.3256589153015 1306.6557472377249 402.3043026134283L1306.6557472377249 402.3043026134283Q1306.6557472377249 411.20276649147996 1314.4676618422463 411.20276649147996L1314.4676618422463 411.20276649147996Q1320.8183550099502 411.20276649147996 1326.4759046755748 408.97346711992594Q1332.1521879493635 406.74416774837204 1339.9641025538845 400.5433434459823L1339.9641025538845 400.5433434459823Q1344.8161070684432 396.7778882049542 1347.2514761298048 394.4736544007429Q1349.6868451911664 392.1881542046959 1352.5156200239785 389.62164988618423L1352.5156200239785 389.62164988618423Q1353.3211651750444 389.0783752494189 1353.9955750689596 389.0783752494189L1353.9955750689596 389.0783752494189Q1354.6699849628753 389.0783752494189 1355.3443948567906 389.49051462903395Q1356.0188047507063 389.88392040048467 1356.0188047507063 390.70819915971475L1356.0188047507063 390.70819915971475Q1356.0188047507063 392.1881542046959 1353.3211651750444 394.8857937803579L1353.3211651750444 394.8857937803579Q1351.0356649789974 397.04015871925463 1348.4691606604856 399.4005933479588Q1345.9026563419739 401.7610279766631 1340.3762419334998 405.9386225973063L1340.3762419334998 405.9386225973063Q1334.4376881454104 410.5283565975645 1327.4313186919549 413.09486091607624Q1320.4062156303353 415.661365234588 1314.2053913279456 415.661365234588ZM1314.0742560707954 385.0319158859259L1314.0742560707954 385.0319158859259Q1318.3829859485886 385.0319158859259 1322.2983100549318 383.68309609809495Q1326.213634161274 382.334276310264 1329.7168188880023 379.7677719917522L1329.7168188880023 379.7677719917522Q1337.5474671006878 373.97908706897755 1337.5474671006878 368.84607843195414L1337.5474671006878 368.84607843195414Q1337.5474671006878 366.56057823590714 1334.6999586597108 366.56057823590714L1334.6999586597108 366.56057823590714Q1329.304679508387 366.56057823590714 1322.1671747977812 373.1735419179119L1322.1671747977812 373.1735419179119Q1318.6639900710534 376.3957225221748 1316.4346906994997 379.03716127334377Q1314.2053913279456 381.6598664163485 1312.3132969033495 384.7696453716255L1312.3132969033495 384.7696453716255Q1313.118842054415 385.0319158859259 1314.0742560707954 385.0319158859259Z " fill="#fbf8be" transform="matrix(0.6452712896478506,0,0,0.6452712896478506,0,53.11541701957141)"/></g></svg>